<svg width="219" height="359" viewBox="0 0 219 359" fill="none" xmlns="http://www.w3.org/2000/svg">
<path fill-rule="evenodd" clip-rule="evenodd" d="M63.068 358.88C96.8024 358.88 124.15 332.754 124.15 300.525C124.15 268.297 96.8024 242.171 63.068 242.171C29.3335 242.171 1.98633 268.297 1.98633 300.525C1.98633 332.754 29.3335 358.88 63.068 358.88Z" fill="#D8D8D8" fill-opacity="0.5"/>
<path fill-rule="evenodd" clip-rule="evenodd" d="M133.35 262.021C180.217 262.021 218.21 222.991 218.21 174.845C218.21 126.699 180.217 87.6688 133.35 87.6688C86.484 87.6688 48.4912 126.699 48.4912 174.845C48.4912 222.991 86.484 262.021 133.35 262.021Z" fill="#D8D8D8" fill-opacity="0.5"/>
<path opacity="0.5" d="M84 184H188V198H84V184Z" fill="#F5A623" fill-opacity="0.8"/>
<path opacity="0.5" d="M88 164H173V178H88V164Z" fill="#F5A623" fill-opacity="0.8"/>
<path d="M102.975 161.006L100.432 171H98.0185L96.6649 165.75C96.6376 165.65 96.6011 165.497 96.5556 165.292C96.51 165.087 96.4621 164.864 96.412 164.622C96.3619 164.376 96.3163 164.146 96.2753 163.932C96.2388 163.713 96.2138 163.54 96.2001 163.412C96.1864 163.54 96.1591 163.711 96.1181 163.925C96.0816 164.139 96.0383 164.367 95.9882 164.608C95.9426 164.85 95.897 165.076 95.8515 165.285C95.8059 165.495 95.7694 165.654 95.7421 165.764L94.3954 171H91.9892L89.4394 161.006H91.5243L92.8026 166.461C92.8391 166.625 92.8801 166.821 92.9257 167.049C92.9758 167.277 93.0237 167.516 93.0692 167.767C93.1194 168.013 93.1627 168.252 93.1991 168.484C93.2401 168.712 93.2698 168.91 93.288 169.079C93.3108 168.906 93.3404 168.705 93.3769 168.478C93.4133 168.245 93.452 168.01 93.4931 167.773C93.5386 167.532 93.5842 167.309 93.6298 167.104C93.6754 166.898 93.7164 166.732 93.7528 166.604L95.2089 161.006H97.2118L98.6679 166.604C98.6998 166.728 98.7362 166.894 98.7772 167.104C98.8228 167.309 98.8684 167.532 98.914 167.773C98.9595 168.015 99.0006 168.252 99.037 168.484C99.078 168.712 99.1076 168.91 99.1259 169.079C99.1578 168.851 99.2011 168.576 99.2558 168.252C99.315 167.924 99.3765 167.598 99.4403 167.274C99.5087 166.951 99.5679 166.68 99.6181 166.461L100.89 161.006H102.975ZM106.153 163.357V171H104.068V163.357H106.153ZM105.114 160.363C105.424 160.363 105.691 160.436 105.914 160.582C106.137 160.723 106.249 160.99 106.249 161.382C106.249 161.769 106.137 162.038 105.914 162.188C105.691 162.334 105.424 162.407 105.114 162.407C104.8 162.407 104.531 162.334 104.308 162.188C104.089 162.038 103.979 161.769 103.979 161.382C103.979 160.99 104.089 160.723 104.308 160.582C104.531 160.436 104.8 160.363 105.114 160.363ZM110.433 160.363V165.121C110.433 165.408 110.421 165.695 110.398 165.982C110.376 166.27 110.35 166.557 110.323 166.844H110.35C110.492 166.643 110.635 166.445 110.781 166.249C110.932 166.053 111.091 165.864 111.26 165.682L113.399 163.357H115.751L112.716 166.673L115.935 171H113.529L111.328 167.903L110.433 168.621V171H108.348V160.363H110.433ZM119.114 163.357V171H117.029V163.357H119.114ZM118.075 160.363C118.385 160.363 118.652 160.436 118.875 160.582C119.098 160.723 119.21 160.99 119.21 161.382C119.21 161.769 119.098 162.038 118.875 162.188C118.652 162.334 118.385 162.407 118.075 162.407C117.761 162.407 117.492 162.334 117.268 162.188C117.05 162.038 116.94 161.769 116.94 161.382C116.94 160.99 117.05 160.723 117.268 160.582C117.492 160.436 117.761 160.363 118.075 160.363ZM130.284 163.214C131.15 163.214 131.804 163.437 132.246 163.884C132.693 164.326 132.916 165.037 132.916 166.017V171H130.824V166.536C130.824 165.989 130.731 165.577 130.544 165.299C130.357 165.021 130.068 164.882 129.676 164.882C129.124 164.882 128.732 165.08 128.5 165.477C128.267 165.868 128.151 166.431 128.151 167.165V171H126.066V166.536C126.066 166.172 126.025 165.866 125.943 165.62C125.861 165.374 125.736 165.189 125.567 165.066C125.399 164.943 125.182 164.882 124.918 164.882C124.53 164.882 124.225 164.98 124.002 165.176C123.783 165.367 123.626 165.652 123.53 166.03C123.439 166.404 123.393 166.862 123.393 167.404V171H121.308V163.357H122.901L123.182 164.335H123.298C123.453 164.071 123.646 163.856 123.879 163.692C124.116 163.528 124.376 163.408 124.658 163.33C124.941 163.253 125.228 163.214 125.519 163.214C126.08 163.214 126.554 163.305 126.941 163.487C127.333 163.67 127.634 163.952 127.844 164.335H128.028C128.256 163.943 128.577 163.658 128.992 163.48C129.411 163.303 129.842 163.214 130.284 163.214ZM138.214 163.214C138.92 163.214 139.529 163.351 140.039 163.624C140.549 163.893 140.944 164.285 141.222 164.8C141.5 165.315 141.639 165.944 141.639 166.687V167.698H136.71C136.733 168.286 136.908 168.749 137.236 169.086C137.569 169.419 138.029 169.585 138.617 169.585C139.105 169.585 139.551 169.535 139.957 169.435C140.363 169.334 140.78 169.184 141.208 168.983V170.597C140.83 170.784 140.433 170.92 140.018 171.007C139.608 171.093 139.109 171.137 138.521 171.137C137.756 171.137 137.077 170.995 136.484 170.713C135.896 170.43 135.434 170 135.097 169.421C134.764 168.842 134.598 168.113 134.598 167.233C134.598 166.34 134.748 165.597 135.049 165.005C135.354 164.408 135.778 163.961 136.32 163.665C136.863 163.364 137.494 163.214 138.214 163.214ZM138.227 164.697C137.822 164.697 137.485 164.827 137.216 165.087C136.951 165.347 136.799 165.755 136.758 166.311H139.683C139.679 166.001 139.622 165.725 139.513 165.483C139.408 165.242 139.248 165.05 139.034 164.909C138.824 164.768 138.556 164.697 138.227 164.697ZM145.754 171.137C144.902 171.137 144.207 170.804 143.669 170.139C143.136 169.469 142.869 168.487 142.869 167.192C142.869 165.884 143.14 164.896 143.683 164.226C144.225 163.551 144.933 163.214 145.808 163.214C146.173 163.214 146.494 163.264 146.772 163.364C147.05 163.465 147.29 163.599 147.49 163.768C147.695 163.936 147.868 164.125 148.01 164.335H148.078C148.051 164.189 148.017 163.975 147.975 163.692C147.939 163.405 147.921 163.111 147.921 162.811V160.363H150.013V171H148.413L148.01 170.009H147.921C147.789 170.218 147.622 170.41 147.422 170.583C147.226 170.752 146.991 170.886 146.718 170.986C146.444 171.087 146.123 171.137 145.754 171.137ZM146.485 169.476C147.055 169.476 147.456 169.307 147.688 168.97C147.925 168.628 148.051 168.115 148.064 167.432V167.206C148.064 166.463 147.95 165.896 147.723 165.504C147.495 165.107 147.071 164.909 146.451 164.909C145.991 164.909 145.631 165.107 145.371 165.504C145.111 165.9 144.981 166.472 144.981 167.22C144.981 167.967 145.111 168.53 145.371 168.908C145.635 169.286 146.007 169.476 146.485 169.476ZM154.278 163.357V171H152.193V163.357H154.278ZM153.239 160.363C153.549 160.363 153.816 160.436 154.039 160.582C154.262 160.723 154.374 160.99 154.374 161.382C154.374 161.769 154.262 162.038 154.039 162.188C153.816 162.334 153.549 162.407 153.239 162.407C152.925 162.407 152.656 162.334 152.433 162.188C152.214 162.038 152.104 161.769 152.104 161.382C152.104 160.99 152.214 160.723 152.433 160.582C152.656 160.436 152.925 160.363 153.239 160.363ZM159.603 163.2C160.629 163.2 161.415 163.424 161.962 163.87C162.509 164.317 162.782 164.996 162.782 165.907V171H161.326L160.923 169.961H160.868C160.649 170.234 160.426 170.458 160.198 170.631C159.97 170.804 159.708 170.932 159.412 171.014C159.116 171.096 158.756 171.137 158.332 171.137C157.881 171.137 157.475 171.05 157.115 170.877C156.76 170.704 156.479 170.439 156.274 170.084C156.069 169.724 155.967 169.268 155.967 168.717C155.967 167.906 156.252 167.309 156.821 166.926C157.391 166.538 158.245 166.324 159.385 166.283L160.711 166.242V165.907C160.711 165.506 160.606 165.212 160.396 165.025C160.187 164.839 159.895 164.745 159.521 164.745C159.152 164.745 158.79 164.798 158.434 164.902C158.079 165.007 157.724 165.139 157.368 165.299L156.678 163.891C157.083 163.676 157.537 163.508 158.038 163.385C158.544 163.262 159.066 163.2 159.603 163.2ZM160.711 167.459L159.904 167.486C159.23 167.505 158.76 167.625 158.496 167.849C158.236 168.072 158.106 168.366 158.106 168.73C158.106 169.049 158.2 169.277 158.387 169.414C158.573 169.546 158.817 169.612 159.118 169.612C159.565 169.612 159.941 169.48 160.246 169.216C160.556 168.951 160.711 168.576 160.711 168.088V167.459ZM93.9647 184.907C93.9647 186.033 93.7483 186.974 93.3153 187.73C92.8869 188.482 92.2649 189.05 91.4491 189.433C90.6334 189.811 89.6513 190 88.5028 190H85.6728V180.006H88.8104C89.8586 180.006 90.7678 180.193 91.538 180.566C92.3082 180.936 92.9052 181.485 93.329 182.214C93.7528 182.938 93.9647 183.836 93.9647 184.907ZM91.7636 184.962C91.7636 184.224 91.6542 183.618 91.4354 183.144C91.2213 182.665 90.9022 182.312 90.4784 182.084C90.0591 181.856 89.5396 181.742 88.9198 181.742H87.7919V188.25H88.7011C89.7356 188.25 90.5035 187.974 91.0048 187.423C91.5106 186.871 91.7636 186.051 91.7636 184.962ZM99.0233 182.214C99.7297 182.214 100.338 182.351 100.849 182.624C101.359 182.893 101.753 183.285 102.031 183.8C102.309 184.315 102.448 184.944 102.448 185.687V186.698H97.5194C97.5422 187.286 97.7177 187.749 98.0458 188.086C98.3785 188.419 98.8388 188.585 99.4267 188.585C99.9143 188.585 100.361 188.535 100.767 188.435C101.172 188.334 101.589 188.184 102.017 187.983V189.597C101.639 189.784 101.243 189.92 100.828 190.007C100.418 190.093 99.9188 190.137 99.331 190.137C98.5653 190.137 97.8863 189.995 97.2938 189.713C96.706 189.43 96.2434 189 95.9062 188.421C95.5735 187.842 95.4071 187.113 95.4071 186.233C95.4071 185.34 95.5575 184.597 95.8583 184.005C96.1636 183.408 96.5875 182.961 97.1298 182.665C97.6721 182.364 98.3033 182.214 99.0233 182.214ZM99.037 183.697C98.6314 183.697 98.2942 183.827 98.0253 184.087C97.761 184.347 97.6083 184.755 97.5673 185.311H100.493C100.489 185.001 100.432 184.725 100.322 184.483C100.217 184.242 100.058 184.05 99.8437 183.909C99.634 183.768 99.3651 183.697 99.037 183.697ZM111.157 182.357V190H109.558L109.277 189.022H109.168C109.004 189.282 108.799 189.494 108.553 189.658C108.307 189.822 108.035 189.943 107.739 190.021C107.443 190.098 107.135 190.137 106.816 190.137C106.269 190.137 105.793 190.041 105.388 189.85C104.982 189.654 104.665 189.351 104.437 188.94C104.214 188.53 104.102 187.997 104.102 187.341V182.357H106.187V186.821C106.187 187.368 106.285 187.781 106.481 188.059C106.677 188.337 106.989 188.476 107.418 188.476C107.842 188.476 108.174 188.38 108.416 188.188C108.657 187.993 108.826 187.708 108.922 187.334C109.022 186.956 109.072 186.495 109.072 185.953V182.357H111.157ZM116.564 188.476C116.792 188.476 117.013 188.453 117.227 188.407C117.446 188.362 117.663 188.305 117.877 188.236V189.788C117.654 189.888 117.376 189.97 117.043 190.034C116.715 190.103 116.355 190.137 115.963 190.137C115.507 190.137 115.097 190.064 114.732 189.918C114.372 189.768 114.087 189.51 113.878 189.146C113.673 188.776 113.57 188.264 113.57 187.607V183.923H112.572V183.041L113.721 182.344L114.322 180.73H115.655V182.357H117.795V183.923H115.655V187.607C115.655 187.899 115.737 188.118 115.901 188.264C116.07 188.405 116.291 188.476 116.564 188.476ZM124.761 187.73C124.761 188.25 124.638 188.69 124.392 189.05C124.15 189.405 123.788 189.676 123.305 189.863C122.822 190.046 122.22 190.137 121.5 190.137C120.967 190.137 120.509 190.103 120.126 190.034C119.748 189.966 119.365 189.852 118.977 189.692V187.97C119.392 188.157 119.836 188.312 120.31 188.435C120.789 188.553 121.208 188.612 121.568 188.612C121.974 188.612 122.263 188.553 122.436 188.435C122.614 188.312 122.703 188.152 122.703 187.956C122.703 187.828 122.667 187.715 122.594 187.614C122.525 187.509 122.375 187.393 122.142 187.266C121.91 187.133 121.545 186.963 121.049 186.753C120.57 186.552 120.176 186.35 119.866 186.145C119.561 185.939 119.333 185.698 119.183 185.42C119.037 185.137 118.964 184.78 118.964 184.347C118.964 183.64 119.237 183.109 119.784 182.754C120.336 182.394 121.072 182.214 121.992 182.214C122.466 182.214 122.917 182.262 123.346 182.357C123.779 182.453 124.223 182.606 124.679 182.815L124.05 184.319C123.671 184.155 123.314 184.021 122.976 183.916C122.644 183.811 122.304 183.759 121.958 183.759C121.653 183.759 121.422 183.8 121.267 183.882C121.113 183.964 121.035 184.089 121.035 184.258C121.035 184.381 121.074 184.49 121.151 184.586C121.233 184.682 121.388 184.789 121.616 184.907C121.849 185.021 122.188 185.169 122.635 185.352C123.068 185.529 123.444 185.716 123.763 185.912C124.082 186.104 124.328 186.343 124.501 186.63C124.674 186.912 124.761 187.279 124.761 187.73ZM129.491 190.137C128.735 190.137 128.09 190 127.557 189.727C127.023 189.449 126.618 189.02 126.34 188.441C126.062 187.863 125.923 187.122 125.923 186.22C125.923 185.285 126.08 184.524 126.394 183.937C126.713 183.344 127.153 182.909 127.714 182.631C128.279 182.353 128.933 182.214 129.676 182.214C130.204 182.214 130.66 182.266 131.043 182.371C131.43 182.471 131.767 182.592 132.055 182.733L131.439 184.347C131.111 184.215 130.806 184.107 130.523 184.025C130.241 183.939 129.958 183.896 129.676 183.896C129.311 183.896 129.008 183.982 128.767 184.155C128.525 184.324 128.345 184.579 128.226 184.921C128.108 185.263 128.049 185.691 128.049 186.206C128.049 186.712 128.113 187.131 128.24 187.464C128.368 187.797 128.552 188.045 128.794 188.209C129.035 188.368 129.329 188.448 129.676 188.448C130.109 188.448 130.494 188.391 130.831 188.277C131.168 188.159 131.496 187.995 131.815 187.785V189.569C131.496 189.77 131.161 189.913 130.81 190C130.464 190.091 130.024 190.137 129.491 190.137ZM135.678 179.363V181.53C135.678 181.909 135.664 182.269 135.637 182.61C135.614 182.952 135.596 183.194 135.582 183.335H135.691C135.855 183.071 136.049 182.856 136.272 182.692C136.5 182.528 136.751 182.408 137.024 182.33C137.298 182.253 137.592 182.214 137.906 182.214C138.458 182.214 138.938 182.312 139.349 182.508C139.759 182.699 140.078 183.002 140.306 183.417C140.533 183.827 140.647 184.36 140.647 185.017V190H138.562V185.536C138.562 184.989 138.462 184.577 138.262 184.299C138.061 184.021 137.751 183.882 137.332 183.882C136.913 183.882 136.582 183.98 136.341 184.176C136.099 184.367 135.928 184.652 135.828 185.03C135.728 185.404 135.678 185.862 135.678 186.404V190H133.593V179.363H135.678ZM144.879 190H142.794V179.363H144.879V190ZM150.204 182.2C151.229 182.2 152.016 182.424 152.562 182.87C153.109 183.317 153.383 183.996 153.383 184.907V190H151.927L151.523 188.961H151.469C151.25 189.234 151.027 189.458 150.799 189.631C150.571 189.804 150.309 189.932 150.013 190.014C149.716 190.096 149.356 190.137 148.933 190.137C148.481 190.137 148.076 190.05 147.716 189.877C147.36 189.704 147.08 189.439 146.875 189.084C146.67 188.724 146.567 188.268 146.567 187.717C146.567 186.906 146.852 186.309 147.422 185.926C147.991 185.538 148.846 185.324 149.985 185.283L151.311 185.242V184.907C151.311 184.506 151.207 184.212 150.997 184.025C150.787 183.839 150.496 183.745 150.122 183.745C149.753 183.745 149.391 183.798 149.035 183.902C148.68 184.007 148.324 184.139 147.969 184.299L147.278 182.891C147.684 182.676 148.137 182.508 148.639 182.385C149.144 182.262 149.666 182.2 150.204 182.2ZM151.311 186.459L150.505 186.486C149.83 186.505 149.361 186.625 149.097 186.849C148.837 187.072 148.707 187.366 148.707 187.73C148.707 188.049 148.8 188.277 148.987 188.414C149.174 188.546 149.418 188.612 149.719 188.612C150.165 188.612 150.541 188.48 150.847 188.216C151.156 187.951 151.311 187.576 151.311 187.088V186.459ZM159.877 182.214C160.693 182.214 161.349 182.437 161.846 182.884C162.342 183.326 162.591 184.037 162.591 185.017V190H160.506V185.536C160.506 184.989 160.405 184.577 160.205 184.299C160.009 184.021 159.699 183.882 159.275 183.882C158.637 183.882 158.202 184.098 157.97 184.531C157.737 184.964 157.621 185.589 157.621 186.404V190H155.536V182.357H157.129L157.409 183.335H157.525C157.689 183.071 157.892 182.856 158.134 182.692C158.38 182.528 158.651 182.408 158.947 182.33C159.248 182.253 159.558 182.214 159.877 182.214ZM167.157 190.137C166.305 190.137 165.61 189.804 165.072 189.139C164.539 188.469 164.272 187.487 164.272 186.192C164.272 184.884 164.544 183.896 165.086 183.226C165.628 182.551 166.337 182.214 167.212 182.214C167.576 182.214 167.898 182.264 168.176 182.364C168.454 182.465 168.693 182.599 168.893 182.768C169.099 182.936 169.272 183.125 169.413 183.335H169.481C169.454 183.189 169.42 182.975 169.379 182.692C169.342 182.405 169.324 182.111 169.324 181.811V179.363H171.416V190H169.816L169.413 189.009H169.324C169.192 189.218 169.026 189.41 168.825 189.583C168.629 189.752 168.394 189.886 168.121 189.986C167.848 190.087 167.526 190.137 167.157 190.137ZM167.889 188.476C168.458 188.476 168.859 188.307 169.092 187.97C169.329 187.628 169.454 187.115 169.468 186.432V186.206C169.468 185.463 169.354 184.896 169.126 184.504C168.898 184.107 168.474 183.909 167.854 183.909C167.394 183.909 167.034 184.107 166.774 184.504C166.515 184.9 166.385 185.472 166.385 186.22C166.385 186.967 166.515 187.53 166.774 187.908C167.039 188.286 167.41 188.476 167.889 188.476Z" fill="#443D3E"/>
<path opacity="0.5" d="M20 285H106V299H20V285Z" fill="#B8E986" fill-opacity="0.802"/>
<path opacity="0.5" d="M18 302H104V316H18V302Z" fill="#B8E986" fill-opacity="0.802"/>
<path fill-rule="evenodd" clip-rule="evenodd" d="M138.094 88.6538C164.293 88.6538 185.531 68.808 185.531 44.3269C185.531 19.8458 164.293 0 138.094 0C111.895 0 90.6572 19.8458 90.6572 44.3269C90.6572 68.808 111.895 88.6538 138.094 88.6538Z" fill="#E67D89"/>
<path d="M125.119 37.656V27.6619H127.239V37.656H125.119ZM131.675 27.0193V29.1863C131.675 29.5645 131.661 29.9246 131.634 30.2664C131.611 30.6082 131.593 30.8497 131.579 30.991H131.689C131.853 30.7266 132.047 30.5125 132.27 30.3484C132.498 30.1843 132.748 30.0636 133.022 29.9861C133.295 29.9086 133.589 29.8699 133.904 29.8699C134.455 29.8699 134.936 29.9679 135.346 30.1638C135.756 30.3552 136.075 30.6583 136.303 31.073C136.531 31.4832 136.645 32.0164 136.645 32.6726V37.656H134.56V33.1921C134.56 32.6453 134.46 32.2328 134.259 31.9548C134.059 31.6768 133.749 31.5378 133.329 31.5378C132.91 31.5378 132.58 31.6358 132.338 31.8318C132.097 32.0232 131.926 32.308 131.825 32.6863C131.725 33.06 131.675 33.518 131.675 34.0603V37.656H129.59V27.0193H131.675ZM143.057 29.8699C143.162 29.8699 143.283 29.8767 143.419 29.8904C143.561 29.8995 143.674 29.9132 143.761 29.9314L143.604 31.8865C143.535 31.8637 143.437 31.8477 143.31 31.8386C143.187 31.825 143.08 31.8181 142.989 31.8181C142.72 31.8181 142.458 31.8523 142.202 31.9207C141.952 31.989 141.726 32.1007 141.526 32.2556C141.325 32.406 141.166 32.6065 141.047 32.8572C140.933 33.1033 140.876 33.4063 140.876 33.7664V37.656H138.791V30.0134H140.37L140.678 31.2986H140.781C140.931 31.0388 141.118 30.8018 141.341 30.5876C141.569 30.3689 141.826 30.1957 142.114 30.0681C142.405 29.936 142.72 29.8699 143.057 29.8699ZM148.3 29.8699C149.006 29.8699 149.615 30.0066 150.125 30.28C150.636 30.5489 151.03 30.9408 151.308 31.4558C151.586 31.9708 151.725 32.5997 151.725 33.3425V34.3542H146.796C146.819 34.9421 146.994 35.4047 147.323 35.7419C147.655 36.0746 148.116 36.241 148.703 36.241C149.191 36.241 149.638 36.1908 150.043 36.0906C150.449 35.9903 150.866 35.8399 151.294 35.6394V37.2527C150.916 37.4395 150.52 37.5763 150.105 37.6628C149.695 37.7494 149.196 37.7927 148.608 37.7927C147.842 37.7927 147.163 37.6514 146.571 37.3689C145.983 37.0863 145.52 36.6557 145.183 36.0769C144.85 35.4981 144.684 34.769 144.684 33.8894C144.684 32.9962 144.834 32.2533 145.135 31.6609C145.44 31.0639 145.864 30.6173 146.407 30.321C146.949 30.0203 147.58 29.8699 148.3 29.8699ZM148.314 31.3533C147.908 31.3533 147.571 31.4832 147.302 31.7429C147.038 32.0027 146.885 32.4106 146.844 32.9666H149.77C149.765 32.6567 149.708 32.3809 149.599 32.1394C149.494 31.8979 149.335 31.7065 149.12 31.5652C148.911 31.4239 148.642 31.3533 148.314 31.3533ZM119.664 53.8806C119.664 54.4731 119.521 54.988 119.234 55.4255C118.947 55.863 118.527 56.2003 117.976 56.4373C117.429 56.6742 116.764 56.7927 115.98 56.7927C115.633 56.7927 115.294 56.7699 114.961 56.7244C114.633 56.6788 114.316 56.6127 114.011 56.5261C113.71 56.435 113.423 56.3233 113.15 56.1912V54.2224C113.624 54.432 114.116 54.6212 114.626 54.7898C115.137 54.9584 115.643 55.0427 116.144 55.0427C116.49 55.0427 116.768 54.9972 116.978 54.906C117.192 54.8149 117.347 54.6895 117.443 54.53C117.538 54.3705 117.586 54.1882 117.586 53.9832C117.586 53.7325 117.502 53.5183 117.333 53.3406C117.165 53.1628 116.932 52.9965 116.636 52.8416C116.344 52.6866 116.014 52.5203 115.645 52.3425C115.412 52.2332 115.159 52.101 114.886 51.946C114.613 51.7865 114.353 51.5929 114.107 51.365C113.861 51.1371 113.658 50.8614 113.498 50.5378C113.343 50.2097 113.266 49.8178 113.266 49.3621C113.266 48.7651 113.403 48.2546 113.676 47.8308C113.95 47.407 114.339 47.0834 114.845 46.8601C115.355 46.6322 115.957 46.5183 116.65 46.5183C117.169 46.5183 117.664 46.5798 118.133 46.7029C118.607 46.8214 119.102 46.9945 119.617 47.2224L118.933 48.8699C118.473 48.683 118.06 48.5395 117.696 48.4392C117.331 48.3344 116.96 48.282 116.581 48.282C116.317 48.282 116.091 48.3253 115.905 48.4119C115.718 48.4939 115.576 48.6124 115.481 48.7673C115.385 48.9177 115.337 49.0932 115.337 49.2937C115.337 49.5307 115.406 49.7312 115.542 49.8953C115.684 50.0548 115.893 50.2097 116.171 50.3601C116.454 50.5105 116.805 50.686 117.224 50.8865C117.734 51.128 118.17 51.3809 118.53 51.6453C118.894 51.905 119.174 52.2126 119.37 52.5681C119.566 52.919 119.664 53.3565 119.664 53.8806ZM125.564 48.8699C126.425 48.8699 127.12 49.2048 127.649 49.8748C128.182 50.5447 128.449 51.5268 128.449 52.821C128.449 53.6869 128.323 54.4161 128.073 55.0085C127.822 55.5964 127.476 56.0408 127.034 56.3416C126.591 56.6423 126.083 56.7927 125.509 56.7927C125.14 56.7927 124.823 56.7472 124.559 56.656C124.295 56.5603 124.069 56.4395 123.882 56.2937C123.695 56.1433 123.534 55.9838 123.397 55.8152H123.287C123.324 55.9975 123.351 56.1843 123.369 56.3757C123.388 56.5671 123.397 56.754 123.397 56.9363V60.0193H121.312V49.0134H123.007L123.301 50.0046H123.397C123.534 49.7996 123.7 49.6104 123.896 49.4373C124.092 49.2641 124.326 49.1274 124.6 49.0271C124.878 48.9223 125.199 48.8699 125.564 48.8699ZM124.894 50.5378C124.529 50.5378 124.24 50.613 124.026 50.7634C123.811 50.9138 123.654 51.1394 123.554 51.4402C123.458 51.741 123.406 52.1215 123.397 52.5818V52.8074C123.397 53.2996 123.442 53.7166 123.534 54.0583C123.629 54.4001 123.786 54.6599 124.005 54.8376C124.228 55.0154 124.534 55.1042 124.921 55.1042C125.24 55.1042 125.502 55.0154 125.707 54.8376C125.912 54.6599 126.065 54.4001 126.165 54.0583C126.27 53.712 126.323 53.2904 126.323 52.7937C126.323 52.0463 126.206 51.4835 125.974 51.1052C125.742 50.727 125.381 50.5378 124.894 50.5378ZM133.323 48.8699C134.029 48.8699 134.637 49.0066 135.148 49.28C135.658 49.5489 136.052 49.9408 136.33 50.4558C136.608 50.9708 136.747 51.5997 136.747 52.3425V53.3542H131.819C131.841 53.9421 132.017 54.4047 132.345 54.7419C132.678 55.0746 133.138 55.241 133.726 55.241C134.214 55.241 134.66 55.1908 135.066 55.0906C135.471 54.9903 135.888 54.8399 136.317 54.6394V56.2527C135.938 56.4395 135.542 56.5763 135.127 56.6628C134.717 56.7494 134.218 56.7927 133.63 56.7927C132.865 56.7927 132.186 56.6514 131.593 56.3689C131.005 56.0863 130.543 55.6557 130.205 55.0769C129.873 54.4981 129.706 53.769 129.706 52.8894C129.706 51.9962 129.857 51.2533 130.158 50.6609C130.463 50.0639 130.887 49.6173 131.429 49.321C131.971 49.0203 132.603 48.8699 133.323 48.8699ZM133.336 50.3533C132.931 50.3533 132.593 50.4832 132.325 50.7429C132.06 51.0027 131.908 51.4106 131.867 51.9666H134.792C134.788 51.6567 134.731 51.3809 134.621 51.1394C134.517 50.8979 134.357 50.7065 134.143 50.5652C133.933 50.4239 133.664 50.3533 133.336 50.3533ZM142.784 48.8699C143.599 48.8699 144.256 49.0932 144.752 49.5398C145.249 49.9819 145.497 50.6928 145.497 51.6726V56.656H143.412V52.1921C143.412 51.6453 143.312 51.2328 143.112 50.9548C142.916 50.6768 142.606 50.5378 142.182 50.5378C141.544 50.5378 141.109 50.7543 140.876 51.1873C140.644 51.6202 140.528 52.2445 140.528 53.0603V56.656H138.443V49.0134H140.035L140.316 49.991H140.432C140.596 49.7266 140.799 49.5125 141.04 49.3484C141.286 49.1843 141.558 49.0636 141.854 48.9861C142.155 48.9086 142.464 48.8699 142.784 48.8699ZM150.064 56.7927C149.212 56.7927 148.517 56.46 147.979 55.7947C147.446 55.1248 147.179 54.1427 147.179 52.8484C147.179 51.5404 147.45 50.5515 147.992 49.8816C148.535 49.2071 149.243 48.8699 150.118 48.8699C150.483 48.8699 150.804 48.92 151.082 49.0203C151.36 49.1205 151.6 49.255 151.8 49.4236C152.005 49.5922 152.178 49.7813 152.32 49.991H152.388C152.361 49.8451 152.326 49.6309 152.285 49.3484C152.249 49.0613 152.231 48.7673 152.231 48.4666V46.0193H154.323V56.656H152.723L152.32 55.6648H152.231C152.099 55.8744 151.932 56.0658 151.732 56.239C151.536 56.4076 151.301 56.5421 151.028 56.6423C150.754 56.7426 150.433 56.7927 150.064 56.7927ZM150.795 55.1316C151.365 55.1316 151.766 54.963 151.998 54.6257C152.235 54.2839 152.361 53.7712 152.374 53.0876V52.8621C152.374 52.1192 152.26 51.5518 152.033 51.1599C151.805 50.7634 151.381 50.5652 150.761 50.5652C150.301 50.5652 149.941 50.7634 149.681 51.1599C149.421 51.5564 149.291 52.1283 149.291 52.8757C149.291 53.6231 149.421 54.186 149.681 54.5642C149.945 54.9425 150.317 55.1316 150.795 55.1316ZM159.655 48.8699C160.361 48.8699 160.969 49.0066 161.48 49.28C161.99 49.5489 162.384 49.9408 162.662 50.4558C162.94 50.9708 163.079 51.5997 163.079 52.3425V53.3542H158.151C158.173 53.9421 158.349 54.4047 158.677 54.7419C159.01 55.0746 159.47 55.241 160.058 55.241C160.546 55.241 160.992 55.1908 161.398 55.0906C161.803 54.9903 162.22 54.8399 162.649 54.6394V56.2527C162.27 56.4395 161.874 56.5763 161.459 56.6628C161.049 56.7494 160.55 56.7927 159.962 56.7927C159.197 56.7927 158.518 56.6514 157.925 56.3689C157.337 56.0863 156.875 55.6557 156.537 55.0769C156.205 54.4981 156.038 53.769 156.038 52.8894C156.038 51.9962 156.189 51.2533 156.49 50.6609C156.795 50.0639 157.219 49.6173 157.761 49.321C158.303 49.0203 158.935 48.8699 159.655 48.8699ZM159.668 50.3533C159.263 50.3533 158.925 50.4832 158.657 50.7429C158.392 51.0027 158.24 51.4106 158.199 51.9666H161.124C161.12 51.6567 161.063 51.3809 160.953 51.1394C160.849 50.8979 160.689 50.7065 160.475 50.5652C160.265 50.4239 159.996 50.3533 159.668 50.3533Z" fill="white"/>
<mask id="mask0_918_17" style="mask-type:luminance" maskUnits="userSpaceOnUse" x="106" y="58" width="82" height="86">
<path fill-rule="evenodd" clip-rule="evenodd" d="M106.552 81.8075L149.834 58.4566L187.796 119.898L144.514 143.249L106.552 81.8075Z" fill="white"/>
</mask>
<g mask="url(#mask0_918_17)">
<path fill-rule="evenodd" clip-rule="evenodd" d="M145.594 142.667C145.186 142.887 144.665 142.881 144.254 142.614C143.694 142.246 143.561 141.523 143.958 140.998C161.591 117.664 163.335 85.3608 148.294 60.6157C147.957 60.0612 148.165 59.3566 148.757 59.0373L148.765 59.0332C149.362 58.7164 150.121 58.9108 150.459 59.4666C165.964 84.9751 164.168 118.276 145.988 142.329C145.881 142.472 145.746 142.584 145.594 142.667Z" fill="#1A1919"/>
</g>
<mask id="mask1_918_17" style="mask-type:luminance" maskUnits="userSpaceOnUse" x="125" y="125" width="34" height="37">
<path fill-rule="evenodd" clip-rule="evenodd" d="M125.141 135.319L142.587 125.907L158.637 151.885L141.191 161.297L125.141 135.319Z" fill="white"/>
</mask>
<g mask="url(#mask1_918_17)">
<path fill-rule="evenodd" clip-rule="evenodd" d="M157.559 152.466C157.466 152.516 157.366 152.555 157.259 152.582C151.054 154.123 144.401 154.506 138.019 153.685C137.559 153.626 136.698 153.518 136.069 152.893C135.487 152.313 135.388 151.581 135.329 151.144L132.71 132.066C132.622 131.422 133.098 130.84 133.789 130.762C134.471 130.685 135.097 131.143 135.185 131.785L137.804 150.865C137.822 150.979 137.857 151.243 137.901 151.317C137.902 151.299 138.061 151.327 138.334 151.361C144.394 152.14 150.709 151.779 156.6 150.313C157.265 150.148 157.951 150.523 158.133 151.149C158.286 151.673 158.035 152.209 157.559 152.466Z" fill="#1A1919"/>
</g>
<mask id="mask2_918_17" style="mask-type:luminance" maskUnits="userSpaceOnUse" x="36" y="194" width="89" height="66">
<path fill-rule="evenodd" clip-rule="evenodd" d="M124.114 238.715L109.502 194.054L36.8954 214.796L51.5076 259.458L124.114 238.715Z" fill="white"/>
</mask>
<g mask="url(#mask2_918_17)">
<path fill-rule="evenodd" clip-rule="evenodd" d="M51.1436 258.343C51.2813 258.764 51.6665 259.092 52.1618 259.158C52.8398 259.246 53.4648 258.803 53.5579 258.165C57.6924 229.863 79.9926 205.126 109.053 196.614C109.704 196.423 110.066 195.776 109.867 195.165L109.864 195.157C109.658 194.545 108.961 194.203 108.309 194.394C78.3519 203.169 55.361 228.668 51.1014 257.846C51.0755 258.018 51.0922 258.186 51.1436 258.343Z" fill="#1A1919"/>
</g>
<path d="M35.6628 281.006L33.1198 291H30.7068L29.3532 285.75C29.3259 285.65 29.2894 285.497 29.2439 285.292C29.1983 285.087 29.1504 284.864 29.1003 284.622C29.0502 284.376 29.0046 284.146 28.9636 283.932C28.9271 283.713 28.9021 283.54 28.8884 283.412C28.8747 283.54 28.8474 283.711 28.8064 283.925C28.7699 284.139 28.7266 284.367 28.6765 284.608C28.6309 284.85 28.5853 285.076 28.5398 285.285C28.4942 285.495 28.4577 285.654 28.4304 285.764L27.0837 291H24.6775L22.1277 281.006H24.2126L25.4909 286.461C25.5274 286.625 25.5684 286.821 25.614 287.049C25.6641 287.277 25.712 287.516 25.7575 287.767C25.8077 288.013 25.851 288.252 25.8874 288.484C25.9284 288.712 25.9581 288.91 25.9763 289.079C25.9991 288.906 26.0287 288.705 26.0652 288.478C26.1016 288.245 26.1404 288.01 26.1814 287.773C26.2269 287.532 26.2725 287.309 26.3181 287.104C26.3637 286.898 26.4047 286.732 26.4411 286.604L27.8972 281.006H29.9001L31.3562 286.604C31.3881 286.728 31.4245 286.894 31.4655 287.104C31.5111 287.309 31.5567 287.532 31.6023 287.773C31.6478 288.015 31.6889 288.252 31.7253 288.484C31.7663 288.712 31.796 288.91 31.8142 289.079C31.8461 288.851 31.8894 288.576 31.9441 288.252C32.0033 287.924 32.0648 287.598 32.1286 287.274C32.197 286.951 32.2562 286.68 32.3064 286.461L33.5779 281.006H35.6628ZM38.8415 283.357V291H36.7566V283.357H38.8415ZM37.8025 280.363C38.1124 280.363 38.379 280.436 38.6023 280.582C38.8256 280.723 38.9372 280.99 38.9372 281.382C38.9372 281.769 38.8256 282.038 38.6023 282.188C38.379 282.334 38.1124 282.407 37.8025 282.407C37.488 282.407 37.2191 282.334 36.9958 282.188C36.7771 282.038 36.6677 281.769 36.6677 281.382C36.6677 280.99 36.7771 280.723 36.9958 280.582C37.2191 280.436 37.488 280.363 37.8025 280.363ZM43.1208 280.363V285.121C43.1208 285.408 43.1094 285.695 43.0866 285.982C43.0639 286.27 43.0388 286.557 43.0114 286.844H43.0388C43.1801 286.643 43.3236 286.445 43.4695 286.249C43.6198 286.053 43.7794 285.864 43.948 285.682L46.0876 283.357H48.4392L45.404 286.673L48.6238 291H46.2175L44.0163 287.903L43.1208 288.621V291H41.0359V280.363H43.1208ZM51.8025 283.357V291H49.7175V283.357H51.8025ZM50.7634 280.363C51.0733 280.363 51.3399 280.436 51.5632 280.582C51.7865 280.723 51.8982 280.99 51.8982 281.382C51.8982 281.769 51.7865 282.038 51.5632 282.188C51.3399 282.334 51.0733 282.407 50.7634 282.407C50.4489 282.407 50.1801 282.334 49.9568 282.188C49.738 282.038 49.6286 281.769 49.6286 281.382C49.6286 280.99 49.738 280.723 49.9568 280.582C50.1801 280.436 50.4489 280.363 50.7634 280.363ZM62.9724 283.214C63.8383 283.214 64.4922 283.437 64.9343 283.884C65.3809 284.326 65.6042 285.037 65.6042 286.017V291H63.5124V286.536C63.5124 285.989 63.419 285.577 63.2322 285.299C63.0453 285.021 62.7559 284.882 62.364 284.882C61.8126 284.882 61.4206 285.08 61.1882 285.477C60.9558 285.868 60.8396 286.431 60.8396 287.165V291H58.7546V286.536C58.7546 286.172 58.7136 285.866 58.6316 285.62C58.5495 285.374 58.4242 285.189 58.2556 285.066C58.087 284.943 57.8705 284.882 57.6062 284.882C57.2188 284.882 56.9135 284.98 56.6902 285.176C56.4714 285.367 56.3142 285.652 56.2185 286.03C56.1273 286.404 56.0818 286.862 56.0818 287.404V291H53.9968V283.357H55.5896L55.8698 284.335H55.9861C56.141 284.071 56.3347 283.856 56.5671 283.692C56.8041 283.528 57.0639 283.408 57.3464 283.33C57.629 283.253 57.9161 283.214 58.2077 283.214C58.7683 283.214 59.2422 283.305 59.6296 283.487C60.0215 283.67 60.3223 283.952 60.532 284.335H60.7165C60.9444 283.943 61.2657 283.658 61.6804 283.48C62.0997 283.303 62.5303 283.214 62.9724 283.214ZM70.9021 283.214C71.6085 283.214 72.2169 283.351 72.7273 283.624C73.2377 283.893 73.6319 284.285 73.9099 284.8C74.1879 285.315 74.3269 285.944 74.3269 286.687V287.698H69.3982C69.421 288.286 69.5964 288.749 69.9245 289.086C70.2572 289.419 70.7175 289.585 71.3054 289.585C71.793 289.585 72.2396 289.535 72.6452 289.435C73.0508 289.334 73.4678 289.184 73.8962 288.983V290.597C73.518 290.784 73.1215 290.92 72.7068 291.007C72.2966 291.093 71.7976 291.137 71.2097 291.137C70.4441 291.137 69.765 290.995 69.1726 290.713C68.5847 290.43 68.1221 290 67.7849 289.421C67.4522 288.842 67.2859 288.113 67.2859 287.233C67.2859 286.34 67.4363 285.597 67.737 285.005C68.0424 284.408 68.4662 283.961 69.0085 283.665C69.5508 283.364 70.182 283.214 70.9021 283.214ZM70.9157 284.697C70.5101 284.697 70.1729 284.827 69.904 285.087C69.6397 285.347 69.487 285.755 69.446 286.311H72.3718C72.3672 286.001 72.3103 285.725 72.2009 285.483C72.0961 285.242 71.9366 285.05 71.7224 284.909C71.5127 284.768 71.2439 284.697 70.9157 284.697ZM78.4421 291.137C77.5899 291.137 76.8949 290.804 76.3572 290.139C75.8239 289.469 75.5573 288.487 75.5573 287.192C75.5573 285.884 75.8285 284.896 76.3708 284.226C76.9131 283.551 77.6218 283.214 78.4968 283.214C78.8614 283.214 79.1827 283.264 79.4607 283.364C79.7387 283.465 79.9779 283.599 80.1784 283.768C80.3835 283.936 80.5567 284.125 80.698 284.335H80.7663C80.739 284.189 80.7048 283.975 80.6638 283.692C80.6273 283.405 80.6091 283.111 80.6091 282.811V280.363H82.7009V291H81.1013L80.698 290.009H80.6091C80.4769 290.218 80.3106 290.41 80.1101 290.583C79.9141 290.752 79.6794 290.886 79.406 290.986C79.1325 291.087 78.8113 291.137 78.4421 291.137ZM79.1736 289.476C79.7432 289.476 80.1443 289.307 80.3767 288.97C80.6137 288.628 80.739 288.115 80.7527 287.432V287.206C80.7527 286.463 80.6387 285.896 80.4109 285.504C80.183 285.107 79.7592 284.909 79.1394 284.909C78.6791 284.909 78.3191 285.107 78.0593 285.504C77.7995 285.9 77.6697 286.472 77.6697 287.22C77.6697 287.967 77.7995 288.53 78.0593 288.908C78.3236 289.286 78.695 289.476 79.1736 289.476ZM86.9665 283.357V291H84.8816V283.357H86.9665ZM85.9275 280.363C86.2374 280.363 86.504 280.436 86.7273 280.582C86.9506 280.723 87.0622 280.99 87.0622 281.382C87.0622 281.769 86.9506 282.038 86.7273 282.188C86.504 282.334 86.2374 282.407 85.9275 282.407C85.613 282.407 85.3441 282.334 85.1208 282.188C84.9021 282.038 84.7927 281.769 84.7927 281.382C84.7927 280.99 84.9021 280.723 85.1208 280.582C85.3441 280.436 85.613 280.363 85.9275 280.363ZM92.2917 283.2C93.3171 283.2 94.1032 283.424 94.6501 283.87C95.197 284.317 95.4704 284.996 95.4704 285.907V291H94.0144L93.6111 289.961H93.5564C93.3376 290.234 93.1143 290.458 92.8864 290.631C92.6586 290.804 92.3965 290.932 92.1003 291.014C91.8041 291.096 91.4441 291.137 91.0202 291.137C90.5691 291.137 90.1635 291.05 89.8034 290.877C89.448 290.704 89.1677 290.439 88.9626 290.084C88.7575 289.724 88.655 289.268 88.655 288.717C88.655 287.906 88.9398 287.309 89.5095 286.926C90.0792 286.538 90.9336 286.324 92.073 286.283L93.3991 286.242V285.907C93.3991 285.506 93.2943 285.212 93.0847 285.025C92.8751 284.839 92.5834 284.745 92.2097 284.745C91.8405 284.745 91.4782 284.798 91.1228 284.902C90.7673 285.007 90.4118 285.139 90.0564 285.299L89.3659 283.891C89.7715 283.676 90.225 283.508 90.7263 283.385C91.2321 283.262 91.754 283.2 92.2917 283.2ZM93.3991 287.459L92.5925 287.486C91.918 287.505 91.4486 287.625 91.1843 287.849C90.9245 288.072 90.7946 288.366 90.7946 288.73C90.7946 289.049 90.8881 289.277 91.0749 289.414C91.2618 289.546 91.5056 289.612 91.8064 289.612C92.253 289.612 92.629 289.48 92.9343 289.216C93.2442 288.951 93.3991 288.576 93.3991 288.088V287.459ZM20.6989 310H18.614V300.006H24.3425V301.742H20.6989V304.319H24.0896V306.049H20.6989V310ZM33.0788 306.165C33.0788 306.803 32.9922 307.368 32.8191 307.86C32.6504 308.353 32.4021 308.77 32.0739 309.111C31.7504 309.449 31.3585 309.704 30.8982 309.877C30.4424 310.05 29.9275 310.137 29.3532 310.137C28.8155 310.137 28.321 310.05 27.8698 309.877C27.4232 309.704 27.0336 309.449 26.7009 309.111C26.3728 308.77 26.1176 308.353 25.9353 307.86C25.7575 307.368 25.6687 306.803 25.6687 306.165C25.6687 305.317 25.8191 304.6 26.1198 304.012C26.4206 303.424 26.849 302.977 27.405 302.672C27.961 302.367 28.6241 302.214 29.3943 302.214C30.1098 302.214 30.7432 302.367 31.2947 302.672C31.8506 302.977 32.2859 303.424 32.6003 304.012C32.9193 304.6 33.0788 305.317 33.0788 306.165ZM27.7947 306.165C27.7947 306.666 27.8493 307.088 27.9587 307.43C28.0681 307.771 28.239 308.029 28.4714 308.202C28.7038 308.375 29.0069 308.462 29.3806 308.462C29.7497 308.462 30.0482 308.375 30.2761 308.202C30.5085 308.029 30.6771 307.771 30.782 307.43C30.8913 307.088 30.946 306.666 30.946 306.165C30.946 305.659 30.8913 305.24 30.782 304.907C30.6771 304.57 30.5085 304.317 30.2761 304.148C30.0437 303.98 29.7406 303.896 29.3669 303.896C28.8155 303.896 28.4144 304.085 28.1638 304.463C27.9177 304.841 27.7947 305.409 27.7947 306.165ZM41.8152 302.357V310H40.2155L39.9353 309.022H39.8259C39.6618 309.282 39.4568 309.494 39.2107 309.658C38.9646 309.822 38.6934 309.943 38.3972 310.021C38.101 310.098 37.7933 310.137 37.4743 310.137C36.9275 310.137 36.4512 310.041 36.0456 309.85C35.64 309.654 35.3233 309.351 35.0954 308.94C34.8721 308.53 34.7605 307.997 34.7605 307.341V302.357H36.8454V306.821C36.8454 307.368 36.9434 307.781 37.1394 308.059C37.3353 308.337 37.6475 308.476 38.0759 308.476C38.4997 308.476 38.8324 308.38 39.0739 308.188C39.3155 307.993 39.4841 307.708 39.5798 307.334C39.6801 306.956 39.7302 306.495 39.7302 305.953V302.357H41.8152ZM48.3435 302.214C49.1592 302.214 49.8155 302.437 50.3122 302.884C50.809 303.326 51.0573 304.037 51.0573 305.017V310H48.9724V305.536C48.9724 304.989 48.8721 304.577 48.6716 304.299C48.4756 304.021 48.1657 303.882 47.7419 303.882C47.1039 303.882 46.6687 304.098 46.4363 304.531C46.2038 304.964 46.0876 305.589 46.0876 306.404V310H44.0027V302.357H45.5954L45.8757 303.335H45.9919C46.156 303.071 46.3588 302.856 46.6003 302.692C46.8464 302.528 47.1176 302.408 47.4138 302.33C47.7146 302.253 48.0245 302.214 48.3435 302.214ZM55.6238 310.137C54.7715 310.137 54.0766 309.804 53.5388 309.139C53.0056 308.469 52.739 307.487 52.739 306.192C52.739 304.884 53.0101 303.896 53.5525 303.226C54.0948 302.551 54.8034 302.214 55.6784 302.214C56.043 302.214 56.3643 302.264 56.6423 302.364C56.9203 302.465 57.1596 302.599 57.3601 302.768C57.5652 302.936 57.7383 303.125 57.8796 303.335H57.948C57.9206 303.189 57.8864 302.975 57.8454 302.692C57.809 302.405 57.7907 302.111 57.7907 301.811V299.363H59.8825V310H58.2829L57.8796 309.009H57.7907C57.6586 309.218 57.4922 309.41 57.2917 309.583C57.0958 309.752 56.8611 309.886 56.5876 309.986C56.3142 310.087 55.9929 310.137 55.6238 310.137ZM56.3552 308.476C56.9249 308.476 57.3259 308.307 57.5583 307.97C57.7953 307.628 57.9206 307.115 57.9343 306.432V306.206C57.9343 305.463 57.8204 304.896 57.5925 304.504C57.3646 304.107 56.9408 303.909 56.321 303.909C55.8607 303.909 55.5007 304.107 55.2409 304.504C54.9812 304.9 54.8513 305.472 54.8513 306.22C54.8513 306.967 54.9812 307.53 55.2409 307.908C55.5053 308.286 55.8767 308.476 56.3552 308.476ZM65.1941 302.2C66.2195 302.2 67.0056 302.424 67.5525 302.87C68.0993 303.317 68.3728 303.996 68.3728 304.907V310H66.9167L66.5134 308.961H66.4587C66.24 309.234 66.0167 309.458 65.7888 309.631C65.5609 309.804 65.2989 309.932 65.0027 310.014C64.7064 310.096 64.3464 310.137 63.9226 310.137C63.4714 310.137 63.0658 310.05 62.7058 309.877C62.3503 309.704 62.07 309.439 61.865 309.084C61.6599 308.724 61.5573 308.268 61.5573 307.717C61.5573 306.906 61.8422 306.309 62.4118 305.926C62.9815 305.538 63.836 305.324 64.9753 305.283L66.3015 305.242V304.907C66.3015 304.506 66.1967 304.212 65.987 304.025C65.7774 303.839 65.4857 303.745 65.112 303.745C64.7429 303.745 64.3806 303.798 64.0251 303.902C63.6697 304.007 63.3142 304.139 62.9587 304.299L62.2683 302.891C62.6739 302.676 63.1273 302.508 63.6286 302.385C64.1345 302.262 64.6563 302.2 65.1941 302.2ZM66.3015 306.459L65.4948 306.486C64.8204 306.505 64.351 306.625 64.0866 306.849C63.8269 307.072 63.697 307.366 63.697 307.73C63.697 308.049 63.7904 308.277 63.9773 308.414C64.1641 308.546 64.4079 308.612 64.7087 308.612C65.1553 308.612 65.5313 308.48 65.8366 308.216C66.1465 307.951 66.3015 307.576 66.3015 307.088V306.459ZM73.7458 308.476C73.9737 308.476 74.1947 308.453 74.4089 308.407C74.6277 308.362 74.8441 308.305 75.0583 308.236V309.788C74.835 309.888 74.557 309.97 74.2243 310.034C73.8962 310.103 73.5362 310.137 73.1443 310.137C72.6885 310.137 72.2784 310.064 71.9138 309.918C71.5538 309.768 71.2689 309.51 71.0593 309.146C70.8542 308.776 70.7517 308.264 70.7517 307.607V303.923H69.7536V303.041L70.9021 302.344L71.5036 300.73H72.8366V302.357H74.9763V303.923H72.8366V307.607C72.8366 307.899 72.9187 308.118 73.0827 308.264C73.2514 308.405 73.4724 308.476 73.7458 308.476ZM78.695 302.357V310H76.6101V302.357H78.695ZM77.656 299.363C77.9659 299.363 78.2325 299.436 78.4558 299.582C78.6791 299.723 78.7907 299.99 78.7907 300.382C78.7907 300.769 78.6791 301.038 78.4558 301.188C78.2325 301.334 77.9659 301.407 77.656 301.407C77.3415 301.407 77.0726 301.334 76.8493 301.188C76.6306 301.038 76.5212 300.769 76.5212 300.382C76.5212 299.99 76.6306 299.723 76.8493 299.582C77.0726 299.436 77.3415 299.363 77.656 299.363ZM87.8347 306.165C87.8347 306.803 87.7481 307.368 87.5749 307.86C87.4063 308.353 87.1579 308.77 86.8298 309.111C86.5062 309.449 86.1143 309.704 85.654 309.877C85.1983 310.05 84.6833 310.137 84.1091 310.137C83.5713 310.137 83.0769 310.05 82.6257 309.877C82.1791 309.704 81.7894 309.449 81.4568 309.111C81.1286 308.77 80.8734 308.353 80.6911 307.86C80.5134 307.368 80.4245 306.803 80.4245 306.165C80.4245 305.317 80.5749 304.6 80.8757 304.012C81.1765 303.424 81.6049 302.977 82.1609 302.672C82.7168 302.367 83.3799 302.214 84.1501 302.214C84.8656 302.214 85.4991 302.367 86.0505 302.672C86.6065 302.977 87.0417 303.424 87.3562 304.012C87.6752 304.6 87.8347 305.317 87.8347 306.165ZM82.5505 306.165C82.5505 306.666 82.6052 307.088 82.7146 307.43C82.8239 307.771 82.9948 308.029 83.2273 308.202C83.4597 308.375 83.7627 308.462 84.1364 308.462C84.5056 308.462 84.8041 308.375 85.032 308.202C85.2644 308.029 85.433 307.771 85.5378 307.43C85.6472 307.088 85.7019 306.666 85.7019 306.165C85.7019 305.659 85.6472 305.24 85.5378 304.907C85.433 304.57 85.2644 304.317 85.032 304.148C84.7995 303.98 84.4965 303.896 84.1228 303.896C83.5713 303.896 83.1703 304.085 82.9196 304.463C82.6736 304.841 82.5505 305.409 82.5505 306.165ZM93.8982 302.214C94.7139 302.214 95.3702 302.437 95.8669 302.884C96.3637 303.326 96.612 304.037 96.612 305.017V310H94.5271V305.536C94.5271 304.989 94.4268 304.577 94.2263 304.299C94.0303 304.021 93.7204 303.882 93.2966 303.882C92.6586 303.882 92.2234 304.098 91.9909 304.531C91.7585 304.964 91.6423 305.589 91.6423 306.404V310H89.5573V302.357H91.1501L91.4304 303.335H91.5466C91.7107 303.071 91.9135 302.856 92.155 302.692C92.4011 302.528 92.6723 302.408 92.9685 302.33C93.2693 302.253 93.5792 302.214 93.8982 302.214Z" fill="#443D3E"/>
<mask id="mask3_918_17" style="mask-type:luminance" maskUnits="userSpaceOnUse" x="35" y="248" width="38" height="28">
<path fill-rule="evenodd" clip-rule="evenodd" d="M72.4297 266.232L66.5399 248.231L35.8416 257.001L41.7314 275.003L72.4297 266.232Z" fill="white"/>
</mask>
<g mask="url(#mask3_918_17)">
<path fill-rule="evenodd" clip-rule="evenodd" d="M36.2052 258.113C36.2366 258.208 36.2815 258.3 36.34 258.388C39.7533 263.47 44.3399 267.99 49.6069 271.457C49.9859 271.707 50.6944 272.176 51.61 272.12C52.4594 272.067 53.0662 271.595 53.4287 271.312L69.2675 259.03C69.8018 258.614 69.8788 257.885 69.4304 257.388C68.9874 256.897 68.196 256.833 67.6628 257.246L51.8212 269.531C51.7259 269.603 51.5069 269.774 51.4209 269.8C51.4331 269.786 51.2969 269.705 51.0719 269.557C46.0718 266.264 41.7167 261.975 38.478 257.149C38.1124 256.605 37.3368 256.442 36.7469 256.784C36.2519 257.069 36.0445 257.621 36.2052 258.113Z" fill="#1A1919"/>
</g>
</svg>

